<svg width="180" height="62" viewBox="0 0 180 62" fill="none" xmlns="http://www.w3.org/2000/svg">
<path fill-rule="evenodd" clip-rule="evenodd" d="M61.4572 40.2953C56.5603 40.2953 52.9179 38.8093 50.5288 35.8354L54.6856 32.4461C55.6902 33.4844 56.7514 34.2745 57.8735 34.8154C58.9977 35.3563 60.2752 35.6277 61.7091 35.6277C62.8312 35.6277 63.7508 35.3968 64.4687 34.9369C65.1846 34.475 65.5426 33.8642 65.5426 33.1035C65.5426 32.8037 65.4754 32.5333 65.3442 32.2912C65.2151 32.0501 64.9873 31.807 64.665 31.5639C64.3428 31.3228 63.9061 31.0696 63.3571 30.8042C62.806 30.5398 62.1132 30.2461 61.2798 29.9219C60.4663 29.6008 59.6905 29.2494 58.9495 28.8685C58.2105 28.4876 57.5523 28.0389 56.9781 27.5193C56.406 27.0007 55.9526 26.4081 55.6177 25.7386C55.2829 25.0721 55.116 24.287 55.116 23.3886C55.116 22.1437 55.3847 21.0315 55.9221 20.052C56.4596 19.0725 57.1818 18.2358 58.0898 17.545C58.9977 16.8532 60.0537 16.3234 61.2609 15.9547C62.4659 15.586 63.7382 15.4017 65.0765 15.4017C67.2494 15.4017 69.0895 15.7248 70.5958 16.37C72.1 17.0153 73.389 17.8904 74.465 18.9976L70.6661 22.6623C69.7109 21.8094 68.7735 21.1642 67.854 20.7266C66.9334 20.288 65.8648 20.0692 64.6461 20.0692C63.4757 20.0692 62.574 20.3275 61.9411 20.8461C61.3081 21.3648 60.9932 21.9249 60.9932 22.5235C60.9932 22.8467 61.0625 23.1293 61.2073 23.3703C61.3491 23.6134 61.5884 23.8495 61.9232 24.0804C62.2581 24.3103 62.7063 24.5524 63.2668 24.8057C63.8274 25.0599 64.5401 25.3587 65.3988 25.7051C66.2585 26.0505 67.0531 26.4192 67.7816 26.8112C68.5101 27.2032 69.1441 27.653 69.6805 28.1594C70.2179 28.6669 70.642 29.2534 70.9517 29.9219C71.2624 30.5905 71.4177 31.3643 71.4177 32.2395C71.4177 33.5067 71.1437 34.6411 70.5958 35.645C70.0447 36.6467 69.3162 37.4935 68.4093 38.1864C67.4992 38.8772 66.4432 39.4029 65.2382 39.7595C64.031 40.116 62.7703 40.2953 61.4572 40.2953Z" fill="#193D6C"/>
<path fill-rule="evenodd" clip-rule="evenodd" d="M82.6407 40.2953C81.2241 40.2953 79.9569 40.0852 78.8359 39.6609C77.7139 39.2377 76.7578 38.6485 75.9676 37.8935C75.1763 37.1375 74.5687 36.2397 74.1456 35.1992C73.7194 34.1586 73.5078 33.0196 73.5078 31.784C73.5078 30.4107 73.7909 29.0856 74.3571 27.8048C74.9244 26.523 75.7021 25.391 76.6945 24.4067C77.6838 23.4235 78.8463 22.6343 80.1799 22.0391C81.5134 21.445 82.9455 21.1464 84.4803 21.1464C85.8968 21.1464 87.1651 21.3585 88.2861 21.7817C89.4061 22.205 90.3622 22.7941 91.1534 23.5492C91.9436 24.3032 92.5513 25.2009 92.9764 26.2435C93.3995 27.284 93.6142 28.4211 93.6142 29.6567C93.6142 31.03 93.3228 32.357 92.7452 33.6379C92.1676 34.9197 91.3836 36.0517 90.3922 37.0349C89.4009 38.0192 88.2384 38.8084 86.9058 39.4025C85.5723 39.9987 84.1505 40.2953 82.6407 40.2953ZM82.8875 35.8346C83.714 35.8346 84.4637 35.6405 85.1357 35.2504C85.8077 34.8614 86.3791 34.3758 86.8519 33.7927C87.3248 33.2096 87.6888 32.5631 87.9501 31.8544C88.2094 31.1436 88.339 30.4579 88.339 29.7944C88.339 28.4452 87.9615 27.4097 87.2066 26.6879C86.4506 25.969 85.4592 25.6081 84.2325 25.6081C83.406 25.6081 82.6583 25.8021 81.9853 26.1912C81.3123 26.5813 80.7409 27.0669 80.268 27.65C79.7951 28.2331 79.4301 28.8846 79.1719 29.6064C78.9116 30.3262 78.782 31.0069 78.782 31.6483C78.782 32.9974 79.1595 34.033 79.9144 34.7528C80.6693 35.4746 81.6607 35.8346 82.8875 35.8346Z" fill="#193D6C"/>
<path fill-rule="evenodd" clip-rule="evenodd" d="M100.625 15.4017H106.061L99.0523 41.2527H93.6143L100.625 15.4017Z" fill="#193D6C"/>
<path fill-rule="evenodd" clip-rule="evenodd" d="M107.309 22.2709H112.668L107.591 41.2527H102.231L107.309 22.2709ZM109.037 15.4017H114.678L113.373 20.1824H107.732L109.037 15.4017Z" fill="#193D6C"/>
<path fill-rule="evenodd" clip-rule="evenodd" d="M119.931 41.2527C118.909 41.2527 117.964 41.0726 117.093 40.7113C116.224 40.351 115.463 39.827 114.816 39.1403C114.166 38.4525 113.661 37.6091 113.301 36.6072C112.942 35.6062 112.763 34.4763 112.763 33.2184C112.763 31.5645 113.053 30.0385 113.632 28.6424C114.212 27.2444 114.983 26.0387 115.946 25.0265C116.909 24.0132 118.003 23.2262 119.234 22.6684C120.463 22.1085 121.738 21.8281 123.061 21.8281C124.523 21.8281 125.71 22.1085 126.628 22.6684C127.543 23.2262 128.302 23.9733 128.906 24.9026L131.412 15.4017H136.699L129.916 40.9037H124.626L125.183 38.8783C124.371 39.6234 123.553 40.2057 122.73 40.6233C121.906 41.0429 120.974 41.2527 119.931 41.2527ZM122.121 36.7822C122.841 36.7822 123.541 36.6143 124.226 36.2756C124.911 35.9388 125.515 35.4721 126.036 34.8775C126.558 34.2828 126.975 33.5899 127.288 32.7988C127.601 32.0066 127.758 31.1684 127.758 30.2841C127.758 29.0958 127.386 28.1358 126.645 27.402C125.903 26.6671 124.94 26.3007 123.756 26.3007C123.038 26.3007 122.348 26.4645 121.686 26.7899C121.026 27.1164 120.441 27.576 119.931 28.1706C119.42 28.7632 119.008 29.4633 118.693 30.2657C118.382 31.0691 118.226 31.938 118.226 32.8684C118.226 34.1037 118.578 35.0638 119.286 35.7515C119.993 36.4383 120.938 36.7822 122.121 36.7822Z" fill="#193D6C"/>
<path fill-rule="evenodd" clip-rule="evenodd" d="M139.661 32.5052C139.752 33.603 140.124 34.4776 140.78 35.1311C141.434 35.7815 142.439 36.1082 143.795 36.1082C144.472 36.1082 145.127 35.9936 145.759 35.7644C146.392 35.5372 147.081 35.1582 147.826 34.6324L150.199 37.8585C149.384 38.5451 148.407 39.1221 147.268 39.5906C146.126 40.0591 144.778 40.2953 143.218 40.2953C141.908 40.2953 140.732 40.1063 139.69 39.7283C138.648 39.3513 137.763 38.8145 137.034 38.1158C136.307 37.4181 135.75 36.5656 135.362 35.5593C134.977 34.553 134.784 33.408 134.784 32.1272C134.784 30.8013 135.037 29.4803 135.545 28.1633C136.055 26.8484 136.782 25.6712 137.731 24.6297C138.679 23.5892 139.814 22.7488 141.135 22.1074C142.456 21.4671 143.931 21.1464 145.557 21.1464C146.73 21.1464 147.781 21.3313 148.707 21.6953C149.632 22.0612 150.412 22.5648 151.045 23.2052C151.676 23.8466 152.156 24.6006 152.484 25.4712C152.812 26.3407 152.976 27.2897 152.976 28.3182C152.976 28.9817 152.896 29.6693 152.738 30.377C152.582 31.0868 152.356 31.7955 152.064 32.5052H139.661ZM147.928 29.2451C148.04 28.856 148.098 28.4559 148.098 28.0447C148.098 27.2897 147.866 26.6494 147.403 26.1216C146.939 25.5968 146.178 25.3324 145.116 25.3324C143.941 25.3324 142.908 25.6933 142.016 26.4131C141.124 27.1349 140.464 28.0769 140.034 29.2451H147.928Z" fill="#193D6C"/>
<path fill-rule="evenodd" clip-rule="evenodd" d="M157.755 27.0129H155.531L156.747 22.4522H158.936L159.18 21.4359C159.712 19.3303 160.611 17.7991 161.872 16.8404C163.135 15.8816 164.751 15.4017 166.719 15.4017C167.461 15.4017 168.138 15.45 168.752 15.5425C169.366 15.636 169.892 15.7644 170.332 15.9278L169.187 20.3487C168.84 20.2079 168.462 20.0969 168.058 20.0147C167.652 19.9335 167.264 19.8924 166.894 19.8924C165.526 19.8924 164.658 20.5707 164.287 21.9261L164.148 22.4522H168.63L167.414 27.0129H163.036L159.215 41.2527H153.933L157.755 27.0129ZM172.522 22.4522H177.802L172.799 41.2527H167.518L172.522 22.4522ZM174.224 15.6473H179.784L178.499 20.3826H172.939L174.224 15.6473Z" fill="#193D6C"/>
<path fill-rule="evenodd" clip-rule="evenodd" d="M41.9268 9.65698L41.9218 9.6651C33.6521 9.65901 25.3824 9.64176 17.1127 9.68946C15.8983 9.69758 14.6315 9.90362 13.4806 10.2944C6.19129 12.7699 3.57291 21.0938 8.05926 27.7104C12.005 33.5323 16.101 39.2527 20.1436 45.0076C20.2979 45.2238 20.4885 45.5019 20.6872 45.6999C15.3456 45.6887 10.0039 45.6958 4.66222 45.7344H2.77609L0.741699 51.7846H3.60014L3.60417 51.7786C11.7286 51.7826 19.8521 51.7989 27.9755 51.7511C29.1909 51.743 30.4598 51.537 31.6086 51.1472C38.8989 48.6707 41.5163 40.3489 37.03 33.7312C33.0832 27.9083 28.9882 22.1889 24.9456 16.435C24.7913 16.2168 24.6007 15.9387 24.4 15.7408C29.7426 15.7529 35.0843 15.7448 40.427 15.7062H42.7519L44.7843 9.65698H41.9268ZM31.8154 36.6828C33.2305 38.6752 33.8175 40.7214 32.6132 42.9736C31.5905 44.8869 29.9424 45.5628 27.9745 45.6938C27.2271 44.6179 26.6754 43.8211 26.1217 43.0315C21.8441 36.9365 17.5887 30.8264 13.2738 24.7588C11.8587 22.7664 11.2697 20.7192 12.474 18.467C13.4988 16.5548 15.1469 15.8788 17.1137 15.7489C17.8611 16.8237 18.4128 17.6205 18.9675 18.4112C23.2451 24.5051 27.5005 30.6142 31.8154 36.6828Z" fill="#F9B411"/>
<path fill-rule="evenodd" clip-rule="evenodd" d="M6.48633 0.0825195C8.28327 2.63674 10.0812 5.18993 11.8803 7.74209C11.942 7.71835 12.0049 7.69357 12.0687 7.67292C13.2437 7.2744 14.5381 7.06482 15.7779 7.05656C16.8293 7.0514 17.8817 7.05243 18.9331 7.04934C17.3051 4.72225 15.6657 2.40135 14.0232 0.0825195H6.48633Z" fill="#DC7F19"/>
<path fill-rule="evenodd" clip-rule="evenodd" d="M39.0396 61.3591C37.2426 58.8049 35.4447 56.2527 33.6467 53.6995C33.5839 53.7233 33.5211 53.748 33.4562 53.7697C32.2822 54.1672 30.9878 54.3789 29.748 54.3851C28.6966 54.3902 27.6442 54.3892 26.5928 54.3933C28.2219 56.7214 29.8602 59.0413 31.5027 61.3591H39.0396Z" fill="#DC7F19"/>
<path fill-rule="evenodd" clip-rule="evenodd" d="M17.0181 15.4089C17.6929 16.3653 18.3512 17.3166 19.0261 18.274H26.5925C25.9146 17.3155 25.2562 16.3581 24.5762 15.4017L17.0181 15.4089Z" fill="#DC7F19"/>
<path fill-rule="evenodd" clip-rule="evenodd" d="M25.6352 52.732L21.3181 46.0411C20.2052 46.0389 19.0894 46.0411 17.9756 46.04L22.3042 52.7421C23.4151 52.7387 24.5251 52.7376 25.6352 52.732Z" fill="#DC7F19"/>
<path fill-rule="evenodd" clip-rule="evenodd" d="M85.865 57V51.046H87.191V49.837H85.865V49.33C85.865 48.511 86.177 48.199 87.087 48.199V46.964C85.215 46.964 84.37 47.679 84.37 49.33V49.837H83.525V51.046H84.37V57H85.865ZM70.2855 48.888C70.8055 48.888 71.2215 48.472 71.2215 47.939C71.2215 47.406 70.8055 46.99 70.2855 46.99C69.7525 46.99 69.3365 47.406 69.3365 47.939C69.3365 48.472 69.7525 48.888 70.2855 48.888ZM67.922 47.38V57H66.44V47.38H67.922ZM57.0719 54.439C57.0719 55.791 55.9669 57.091 53.9519 57.091C52.1449 57.091 50.7539 56.103 50.7539 54.504H52.3399C52.4049 55.245 52.9249 55.843 53.9519 55.843C54.9919 55.843 55.5769 55.284 55.5769 54.517C55.5769 53.5396 54.6161 53.2834 53.5545 53.0003C52.244 52.6509 50.7799 52.2606 50.7799 50.422C50.7799 48.836 52.0409 47.848 53.8869 47.848C55.6159 47.848 56.8379 48.758 56.9679 50.305H55.3299C55.2779 49.694 54.7449 49.135 53.8089 49.109C52.9509 49.083 52.2879 49.499 52.2879 50.37C52.2879 51.2683 53.2147 51.5245 54.2525 51.8112C55.5725 52.176 57.0719 52.5904 57.0719 54.439ZM65.3114 53.412C65.3114 55.661 63.6474 57.117 61.5934 57.117C59.5524 57.117 58.0054 55.661 58.0054 53.412C58.0054 51.163 59.6174 49.72 61.6584 49.72C63.6994 49.72 65.3114 51.163 65.3114 53.412ZM61.5934 55.83C60.4754 55.83 59.5134 55.037 59.5134 53.412C59.5134 51.787 60.5144 51.007 61.6324 51.007C62.7374 51.007 63.7904 51.787 63.7904 53.412C63.7904 55.037 62.6984 55.83 61.5934 55.83ZM71.0135 49.837V57H69.5315V49.837H71.0135ZM75.509 57.117C76.679 57.117 77.537 56.571 77.992 55.921V57H79.487V47.38H77.992V50.838C77.446 50.162 76.458 49.72 75.522 49.72C73.624 49.72 72.129 51.176 72.129 53.386C72.129 55.596 73.624 57.117 75.509 57.117ZM73.65 53.386C73.65 54.933 74.716 55.83 75.821 55.83C76.939 55.83 77.992 54.959 77.992 53.412C77.992 51.878 76.939 51.007 75.821 51.007C74.716 51.007 73.65 51.839 73.65 53.386ZM81.8505 48.888C82.3705 48.888 82.7865 48.472 82.7865 47.939C82.7865 47.406 82.3705 46.99 81.8505 46.99C81.3175 46.99 80.9015 47.406 80.9015 47.939C80.9015 48.472 81.3175 48.888 81.8505 48.888ZM82.5785 49.837V57H81.0965V49.837H82.5785ZM94.6116 49.837L90.2176 60.367H88.6836L90.1396 56.883L87.3186 49.837H88.9696L90.9846 55.297L93.0776 49.837H94.6116ZM100.483 60.367L104.877 49.837H103.343L101.25 55.297L99.2346 49.837H97.5836L100.405 56.883L98.9486 60.367H100.483ZM112.479 53.412C112.479 55.661 110.815 57.117 108.761 57.117C106.72 57.117 105.173 55.661 105.173 53.412C105.173 51.163 106.785 49.72 108.826 49.72C110.867 49.72 112.479 51.163 112.479 53.412ZM108.761 55.83C107.643 55.83 106.681 55.037 106.681 53.412C106.681 51.787 107.682 51.007 108.8 51.007C109.905 51.007 110.958 51.787 110.958 53.412C110.958 55.037 109.866 55.83 108.761 55.83ZM118.613 56.142C118.145 56.753 117.339 57.104 116.494 57.104C114.817 57.104 113.543 56.051 113.543 54.049V49.837H115.012V53.828C115.012 55.141 115.727 55.817 116.806 55.817C117.898 55.817 118.613 55.141 118.613 53.828V49.837H120.095V57H118.613V56.142ZM123.186 57V53.23C123.186 51.709 123.862 51.254 124.954 51.254H125.331V49.72C124.317 49.72 123.602 50.162 123.186 50.877V49.837H121.704V57H123.186ZM130.877 53.386V57H129.395V47.965H132.515C134.66 47.965 135.713 49.2 135.713 50.669C135.713 51.735 135.141 52.879 133.62 53.256L135.856 57H134.088L132.008 53.386H130.877ZM132.515 52.203H130.877V49.174H132.515C133.672 49.174 134.192 49.759 134.192 50.669C134.192 51.566 133.672 52.203 132.515 52.203ZM143.641 54.868C143.238 56.116 142.107 57.117 140.352 57.117C138.298 57.117 136.777 55.661 136.777 53.412C136.777 51.163 138.233 49.72 140.352 49.72C142.393 49.72 143.836 51.137 143.836 53.243C143.836 53.49 143.823 53.724 143.784 53.971H138.311C138.415 55.154 139.26 55.869 140.352 55.869C141.262 55.869 141.769 55.427 142.042 54.868H143.641ZM142.289 52.775H138.324C138.48 51.644 139.286 50.968 140.287 50.968C141.392 50.968 142.263 51.67 142.289 52.775ZM148.422 55.765V57H147.252C145.978 57 145.185 56.467 145.185 55.011V51.046H144.34V49.837H145.185V48.056H146.68V49.837H148.422V51.046H146.68V55.011C146.68 55.544 146.888 55.765 147.512 55.765H148.422ZM152.333 57.104C153.178 57.104 153.984 56.753 154.452 56.142V57H155.934V49.837H154.452V53.828C154.452 55.141 153.737 55.817 152.645 55.817C151.566 55.817 150.851 55.141 150.851 53.828V49.837H149.382V54.049C149.382 56.051 150.656 57.104 152.333 57.104ZM159.025 53.23V57H157.543V49.837H159.025V50.877C159.441 50.162 160.156 49.72 161.17 49.72V51.254H160.793C159.701 51.254 159.025 51.709 159.025 53.23ZM163.677 57V52.996C163.677 51.683 164.392 51.007 165.484 51.007C166.563 51.007 167.278 51.683 167.278 52.996V57H168.747V52.775C168.747 50.773 167.486 49.72 165.809 49.72C164.951 49.72 164.158 50.071 163.677 50.656V49.837H162.195V57H163.677ZM175.634 54.998C175.634 56.207 174.581 57.117 172.891 57.117C171.175 57.117 169.966 56.103 169.901 54.803H171.435C171.487 55.388 172.046 55.869 172.865 55.869C173.723 55.869 174.178 55.505 174.178 55.011C174.178 54.418 173.436 54.2192 172.579 53.9896C171.406 53.6756 170.018 53.3039 170.018 51.787C170.018 50.643 171.084 49.72 172.774 49.72C174.399 49.72 175.465 50.591 175.543 52.021H174.061C174.009 51.397 173.528 50.968 172.722 50.968C171.929 50.968 171.513 51.293 171.513 51.774C171.513 52.3924 172.256 52.5978 173.111 52.8341C174.251 53.1493 175.59 53.5197 175.634 54.998Z" fill="#636363"/>
</svg>
