<svg id="Layer_1" data-name="Layer 1" xmlns="http://www.w3.org/2000/svg" viewBox="0 0 406 91"><defs><style>.cls-1{fill:#6963ff;}</style></defs><title>Horizontal</title><path class="cls-1" d="M55.24 65.09A29.78 29.78 0 1 1 85 35.31a29.81 29.81 0 0 1-29.76 29.78zm0-55.4a25.63 25.63 0 1 0 25.63 25.62A25.65 25.65 0 0 0 55.24 9.69z"/><path class="cls-1" d="M55.24 85.46A50.2 50.2 0 0 1 5.09 35.31a7.71 7.71 0 0 1 15.41 0 34.74 34.74 0 0 0 69.48 0 7.71 7.71 0 0 1 15.41 0 50.2 50.2 0 0 1-50.15 50.15z"/><path class="cls-1" d="M35.2 35.31a20 20 0 0 0 40.08 0zM143.14 18.58h14.18v8.5h-14.18zM143.14 34.45h14.18v40.83h-14.18zM122.16 18.58h14.18v56.7h-14.18zM213.27 68.38a9.48 9.48 0 0 1-9.73-9.66v-1.19h32.84c-.12-7.19-2.43-13.25-6.72-17.58s-10.37-6.63-17.55-6.63c-13.75 0-23.36 9-23.36 22s9.2 21.14 23.44 21.14c5.36 0 17.86-1.15 22.11-11.33H220a8.14 8.14 0 0 1-6.73 3.25zM203.54 50c0-5.35 3.54-8.67 9.23-8.67a9 9 0 0 1 8.82 8.67v1.19h-18.05zM303.68 44.52h21.16l-21.16 20.57v10.2h37.9v-10.2h-20.33l20.49-20.57.01-10.07h-38.06l-.01 10.07zM284.22 18.58h14.18v8.51h-14.18zM284.22 34.45h14.18v40.83h-14.18zM368.52 68.38a9.44 9.44 0 0 1-9.65-9.66v-1.19h32.59c-.12-7.19-2.42-13.25-6.68-17.58s-10.29-6.63-17.41-6.63c-13.65 0-23.18 9-23.18 22s9.13 21.14 23.26 21.14c5.32 0 17.72-1.15 21.94-11.33h-14.16a8.06 8.06 0 0 1-6.71 3.25zM358.87 50c0-5.35 3.51-8.67 9.15-8.67a8.94 8.94 0 0 1 8.75 8.67v1.19h-17.9zM262.83 49.83c-5.48-1.16-9.81-2.07-9.81-5.3 0-1.58.79-4.23 6.11-4.23a6.71 6.71 0 0 1 4.26 1.33 5.58 5.58 0 0 1 1.88 2.85h13.35c-1.29-7.51-7.93-11.16-20.24-11.16-3.24 0-19.41.62-19.41 13 0 9.17 8.85 10.9 16.65 12.42 5.38 1 10 2 10 5.64 0 3.17-2.51 5.06-6.7 5.06a8.2 8.2 0 0 1-5-1.56 5.62 5.62 0 0 1-2-2.8H238c2.21 9.82 13.55 11.33 20.3 11.33 14.33 0 22.23-4.92 22.23-13.83s-9.81-11.09-17.7-12.75zM189 17.44h-6.31c-11.15 0-16.12 2.38-16.12 16.45v.56h-5.92v8h5.83v32.84h15.15V42.5H189v-8h-7.42v-2c0-2.55.42-4.08 1.41-5.11 1.31-1.35 3.23-1.51 6-1.53zM390.89 70.74a4.56 4.56 0 1 1 4.56 4.55 4.52 4.52 0 0 1-4.56-4.55zm.74 0a3.82 3.82 0 1 0 3.82-3.81 3.81 3.81 0 0 0-3.82 3.81zm5.9 2.59h-.84L395.38 71h-.95v2.36h-.74v-5.14h2.15c.93 0 1.76.28 1.76 1.35a1.29 1.29 0 0 1-1.36 1.4zm-3.1-4.33v1.27h.79c.69 0 1.64.12 1.64-.58s-.54-.69-1.16-.69z"/></svg>