<?xml version="1.0" encoding="utf-8"?>
<!-- Generator: Adobe Illustrator 23.0.2, SVG Export Plug-In . SVG Version: 6.00 Build 0)  -->
<svg version="1.1" id="Layer_1" xmlns="http://www.w3.org/2000/svg" xmlns:xlink="http://www.w3.org/1999/xlink" x="0px" y="0px"
	 viewBox="0 0 80 60" style="enable-background:new 0 0 80 60;" xml:space="preserve">
<style type="text/css">
	.st0{fill:#FFFFFF;stroke:url(#SVGID_1_);stroke-width:3.042;stroke-miterlimit:10;}
</style>
<title>hegion-nav-logo-morpheus</title>
<linearGradient id="SVGID_1_" gradientUnits="userSpaceOnUse" x1="0.479" y1="166.6061" x2="79.521" y2="166.6061" gradientTransform="matrix(1 0 0 1 0 -138)">
	<stop  offset="0" style="stop-color:#6353D9"/>
	<stop  offset="1" style="stop-color:#6353D9"/>
</linearGradient>
<path class="st0" d="M68.5,22.3V11.8L58.2,6.2L48,11.8v11.5l-8,4.6l-7.9-4.6V11.8L21.8,6.2l-10.2,5.6v10.4L2,27.5v11.3l10.2,6
	L22.5,39V28.7l7.6-4.3l8.1,4.6l-8.5,4.9v11.2L40,51l10.3-5.7V33.8l-8.5-4.9l8.1-4.5l7.6,4.3V39l10.3,5.7l10.1-6V27.5L68.5,22.3z
	 M20.9,38l-8.7,4.8l-8.6-5.1v-9.3l8.7-4.7l6.2,3.4l2.5,1.4V38H20.9z M30.5,22.4l-8.6,4.8l-2.6-1.4l-6.1-3.6v-9.4L21.8,8l8.7,4.7
	V22.4z M48.7,34.8v9.6L40,49.2l-8.6-5.1v-9.4L40,30L48.7,34.8z M49.6,22.4v-9.6L58.2,8l8.7,4.7v9.4l-6.1,3.6l0,0l-2.6,1.4L49.6,22.4
	z M76.5,37.8l-8.6,5.1l-8.7-4.8v-9.5l2.5-1.4l6.2-3.4l8.7,4.8L76.5,37.8L76.5,37.8z"/>
</svg>
