<svg class="header__logo-svg header__logo-svg--black" width="155" height="50" viewBox="0 0 155 50" fill="none" xmlns="http://www.w3.org/2000/svg">
<path fill-rule="evenodd" clip-rule="evenodd" d="M28.3171 33.957C28.5337 33.957 28.7093 33.7859 28.7093 33.5749V30.7477L29.3368 30.7477H30.0618L30.0639 30.7477C30.682 30.7482 31.2752 30.9857 31.7151 31.4088L33.6697 33.2887C34.1101 33.7123 34.7041 33.9498 35.323 33.9498H38.4644C38.8138 33.9498 38.9888 33.5383 38.7417 33.2976L35.3332 29.9773C36.0607 29.6251 36.7319 29.158 37.3171 28.5879C38.7367 27.2051 39.5342 25.3295 39.5342 23.3738C39.5342 21.4182 38.7367 19.5426 37.3171 18.1597C35.9068 16.7859 33.9972 16.0101 32.0038 16.0001V16H31.9646H28.3171H27.6896H24.7872C24.5706 16 24.395 16.1711 24.395 16.3821L24.395 33.5749C24.395 33.7859 24.5706 33.957 24.7872 33.957H28.3171ZM31.6116 27.2327H29.3368L28.7093 27.2327L28.7093 19.515L32.0038 19.515V19.5107C33.0415 19.5207 34.0344 19.9266 34.7689 20.6421C35.5126 21.3666 35.9304 22.3492 35.9304 23.3738C35.9304 24.3984 35.5126 25.3811 34.7689 26.1056C34.0344 26.8211 33.0415 27.2269 32.0038 27.2369V27.2327L31.6116 27.2327ZM59.2233 33.8806C59.4399 33.8806 59.6155 33.7095 59.6155 33.4985L59.6155 24.6728L64.1058 32.4302L64.2644 32.7384C64.4055 33.0127 64.8042 33.0212 64.9576 32.7533L69.7345 24.4094V33.4985C69.7345 33.7095 69.9101 33.8806 70.1267 33.8806H73.6565C73.8731 33.8806 74.0487 33.7095 74.0487 33.4985V16.3821C74.0487 16.1711 73.8732 16 73.6565 16H70.1267L70.1234 16L69.8476 16C69.7052 16 69.5739 16.0753 69.5047 16.1966L64.5783 24.8384L59.6519 16.1966C59.5827 16.0753 59.4515 16 59.309 16L59.229 16L59.2233 16H55.6935C55.4769 16 55.3013 16.1711 55.3013 16.3821V33.4985C55.3013 33.7095 55.4769 33.8806 55.6935 33.8806H59.2233ZM83.6965 23.1064C83.9131 23.1064 84.0887 22.9353 84.0887 22.7243V19.515L92.7957 19.515C93.0123 19.515 93.1879 19.3439 93.1879 19.1329V16.3821C93.1879 16.1711 93.0123 16 92.7957 16H83.6965H81.8139H80.1666C79.95 16 79.7744 16.1711 79.7744 16.3821V22.7243C79.7744 22.9353 79.95 23.1064 80.1666 23.1064L83.6965 23.1064ZM81.8139 33.957H80.1666C79.95 33.957 79.7744 33.7859 79.7744 33.5749V27.2327C79.7744 27.0217 79.95 26.8506 80.1666 26.8506H83.6965C83.9131 26.8506 84.0887 27.0217 84.0887 27.2327V30.442H92.7957C93.0123 30.442 93.1879 30.6131 93.1879 30.8241V33.5749C93.1879 33.7859 93.0123 33.957 92.7957 33.957H83.6965H81.8139ZM84.0887 23.4885C84.0887 23.2774 84.2643 23.1064 84.4809 23.1064H87.5401C87.7567 23.1064 87.9323 23.2774 87.9323 23.4885V26.4685C87.9323 26.6796 87.7567 26.8506 87.5401 26.8506H84.4809C84.2643 26.8506 84.0887 26.6796 84.0887 26.4685V23.4885ZM107.317 16C108.053 16 108.746 16.3352 109.191 16.9059L114.689 23.9585L120.35 16.8897C120.802 16.3246 121.5 15.9982 122.236 16.0075L122.637 16.0125L115.469 24.9585L122.518 34H122.124C121.389 34 120.696 33.665 120.251 33.0946L114.676 25.9481L109.076 32.9375C108.623 33.5023 107.926 33.8285 107.19 33.8192L106.797 33.8143L113.896 24.9486L106.916 16H107.317ZM154.608 16H141.822C141.605 16 141.43 16.1711 141.43 16.3821V16.8405C141.43 17.0515 141.605 17.2226 141.822 17.2226L147.548 17.2226V33.5749C147.548 33.7859 147.724 33.957 147.94 33.957H148.489C148.706 33.957 148.882 33.7859 148.882 33.5749V17.2226H154.608C154.824 17.2226 155 17.0515 155 16.8405V16.3821C155 16.1711 154.824 16 154.608 16ZM126.448 16C126.231 16 126.056 16.1711 126.056 16.3821V33.5749C126.056 33.7859 126.231 33.957 126.448 33.957H127.389H133.037H133.351C133.393 33.957 133.434 33.9504 133.472 33.9383C134.623 33.8392 135.708 33.3493 136.531 32.547C137.458 31.6442 137.979 30.4197 137.979 29.143C137.979 27.8662 137.458 26.6418 136.531 25.739C136.256 25.4709 135.952 25.2376 135.626 25.0422V24.9148C135.952 24.7194 136.256 24.4861 136.531 24.218C137.458 23.3152 137.979 22.0908 137.979 20.814C137.979 19.5373 137.458 18.3128 136.531 17.41C135.605 16.5072 134.348 16 133.037 16H127.389H126.448ZM133.037 24.329H133.21C134.105 24.2873 134.955 23.9225 135.591 23.3023C136.269 22.6424 136.649 21.7473 136.649 20.814C136.649 19.8807 136.269 18.9856 135.591 18.3257C134.914 17.6657 133.995 17.295 133.037 17.295V17.299H127.389V24.329H133.037ZM133.21 25.628C134.105 25.6697 134.955 26.0345 135.591 26.6547C136.269 27.3146 136.649 28.2097 136.649 29.143C136.649 30.0763 136.269 30.9714 135.591 31.6313C134.955 32.2515 134.105 32.6163 133.21 32.658H127.389V25.628H133.037H133.21ZM49.5752 22.7244C49.5752 22.9354 49.3996 23.1064 49.183 23.1064L45.6531 23.1064C45.4365 23.1064 45.2609 22.9354 45.2609 22.7244V16.3821C45.2609 16.1711 45.4365 16.0001 45.6531 16.0001L49.183 16.0001C49.3996 16.0001 49.5752 16.1711 49.5752 16.3821V22.7244ZM49.183 33.8804C49.3996 33.8804 49.5752 33.7093 49.5752 33.4983V27.2325C49.5752 27.0215 49.3996 26.8504 49.183 26.8504H45.6531C45.4365 26.8504 45.2609 27.0215 45.2609 27.2325V33.4983C45.2609 33.7093 45.4365 33.8804 45.6531 33.8804H49.183ZM0.392206 23.1064C0.175597 23.1064 0 23.2775 0 23.4885V26.4686C0 26.6796 0.175597 26.8507 0.392206 26.8507H3.45142C3.66803 26.8507 3.84362 26.6796 3.84362 26.4686V23.4885C3.84362 23.2775 3.66803 23.1064 3.45142 23.1064H0.392206ZM8.15802 26.8506H4.23596C4.01935 26.8506 3.84375 27.0216 3.84375 27.2326V33.5749C3.84375 33.7859 4.01935 33.957 4.23596 33.957H7.76581C7.98242 33.957 8.15802 33.7859 8.15802 33.5749V30.7858C8.15802 30.5748 8.33362 30.4038 8.55023 30.4038H11.2565C14.4502 30.4038 16.3953 28.3838 17.1591 27.3899C17.3386 27.1564 17.1626 26.8506 16.8631 26.8506H8.15802ZM4.23596 16C4.01935 16 3.84375 16.1711 3.84375 16.3821V22.7243C3.84375 22.9353 4.01935 23.1064 4.23596 23.1064H7.76581C7.98242 23.1064 8.15802 22.9353 8.15802 22.7243V19.8971C8.15802 19.686 8.33362 19.515 8.55023 19.515H11.5702C13.7029 19.515 14.2054 21.7626 14.3212 22.6633C14.3475 22.8678 14.5229 23.03 14.7345 23.03H18.2616C18.4841 23.03 18.663 22.8504 18.6415 22.6346C18.3506 19.7045 16.1194 16 12.6684 16H8.15802H4.23596Z" fill="white"></path>
</svg>